HIERARCHY
ROOT Hips
{
	OFFSET 0.000000 0.000000 0.000000
	CHANNELS 6 Xposition Yposition Zposition Xrotation Yrotation Zrotation
	JOINT LeftUpLeg_virtual
	{
		OFFSET 0.000000 0.000000 0.000000
		CHANNELS 3 Xrotation Yrotation Zrotation
		JOINT LeftUpLeg
		{
			OFFSET 10.205400 -3.823500 0.155100
			CHANNELS 3 Xrotation Yrotation Zrotation
			JOINT LeftLeg
			{
				OFFSET 0.708757 -12.982077 0.567790
				CHANNELS 3 Xrotation Yrotation Zrotation
				JOINT LeftFoot
				{
					OFFSET -0.708756 -10.717838 -2.184338
					CHANNELS 3 Xrotation Yrotation Zrotation
					JOINT LeftToeBase
					{
						OFFSET 0.108149 -7.191104 7.560241
						CHANNELS 3 Xrotation Yrotation Zrotation
						JOINT LeftToe_End
						{
							OFFSET 0.070230 0.081724 4.490308
							CHANNELS 3 Xrotation Yrotation Zrotation
							End Site
							{
								OFFSET 0 0 0
							}
						}
					}
				}
			}
		}
	}
	JOINT RightUpLeg_virtual
	{
		OFFSET 0.000000 0.000000 0.000000
		CHANNELS 3 Xrotation Yrotation Zrotation
		JOINT RightUpLeg
		{
			OFFSET -10.205400 -3.823500 0.005500
			CHANNELS 3 Xrotation Yrotation Zrotation
			JOINT RightLeg
			{
				OFFSET -0.708756 -12.982134 0.610632
				CHANNELS 3 Xrotation Yrotation Zrotation
				JOINT RightFoot
				{
					OFFSET 0.708754 -10.717769 -1.945823
					CHANNELS 3 Xrotation Yrotation Zrotation
					JOINT RightToeBase
					{
						OFFSET -0.108140 -7.191069 7.372968
						CHANNELS 3 Xrotation Yrotation Zrotation
						JOINT RightToe_End
						{
							OFFSET -0.070227 0.081735 4.479403
							CHANNELS 3 Xrotation Yrotation Zrotation
							End Site
							{
								OFFSET 0 0 0
							}
						}
					}
				}
			}
		}
	}
	JOINT Spine_virtual
	{
		OFFSET 0.000000 0.000000 0.000000
		CHANNELS 3 Xrotation Yrotation Zrotation
		JOINT Spine
		{
			OFFSET 0.000000 6.876099 0.125700
			CHANNELS 3 Xrotation Yrotation Zrotation
			JOINT Spine1
			{
				OFFSET 0.000000 5.730043 0.104720
				CHANNELS 3 Xrotation Yrotation Zrotation
				JOINT Spine1_split
				{
					OFFSET 0.000000 5.730043 0.104720
					CHANNELS 3 Xrotation Yrotation Zrotation
					JOINT Spine2
					{
						OFFSET 0.000000 5.730043 0.104720
						CHANNELS 3 Xrotation Yrotation Zrotation
						JOINT Neck_virtual
						{
							OFFSET 0.000000 0.000000 0.000000
							CHANNELS 3 Xrotation Yrotation Zrotation
							JOINT Neck
							{
								OFFSET 0.000000 10.314075 0.188496
								CHANNELS 3 Xrotation Yrotation Zrotation
								JOINT Head
								{
									OFFSET 0.000000 7.643700 -2.377400
									CHANNELS 3 Xrotation Yrotation Zrotation
									JOINT HeadTop_End
									{
										OFFSET 0.000000 43.788605 -13.619600
										CHANNELS 3 Xrotation Yrotation Zrotation
										End Site
										{
											OFFSET 0 0 0
										}
									}
								}
							}
						}
						JOINT LeftShoulder_virtual
						{
							OFFSET 0.000000 0.000000 0.000000
							CHANNELS 3 Xrotation Yrotation Zrotation
							JOINT LeftShoulder
							{
								OFFSET 2.196100 4.412489 0.087492
								CHANNELS 3 Xrotation Yrotation Zrotation
								JOINT LeftShoulder_split
								{
									OFFSET 2.196100 4.412489 0.087492
									CHANNELS 3 Xrotation Yrotation Zrotation
									JOINT LeftArm
									{
										OFFSET 8.771219 -2.981674 -0.026999
										CHANNELS 3 Xrotation Yrotation Zrotation
										JOINT LeftForeArm
										{
											OFFSET 8.512804 0.000000 -0.000000
											CHANNELS 3 Xrotation Yrotation Zrotation
											JOINT LeftHand
											{
												OFFSET 18.484802 0.000000 -0.000000
												CHANNELS 3 Xrotation Yrotation Zrotation
												End Site
												{
													OFFSET 0 0 0
												}
											}
										}
									}
								}
							}
						}
						JOINT RightShoulder_virtual
						{
							OFFSET 0.000000 0.000000 0.000000
							CHANNELS 3 Xrotation Yrotation Zrotation
							JOINT RightShoulder
							{
								OFFSET -2.196100 4.412496 0.070690
								CHANNELS 3 Xrotation Yrotation Zrotation
								JOINT RightShoulder_split
								{
									OFFSET -2.196100 4.412496 0.070690
									CHANNELS 3 Xrotation Yrotation Zrotation
									JOINT RightArm
									{
										OFFSET -8.771282 -2.981682 -0.094208
										CHANNELS 3 Xrotation Yrotation Zrotation
										JOINT RightForeArm
										{
											OFFSET -8.494598 0.000000 0.000000
											CHANNELS 3 Xrotation Yrotation Zrotation
											JOINT RightHand
											{
												OFFSET -18.483803 0.000000 0.000001
												CHANNELS 3 Xrotation Yrotation Zrotation
												End Site
												{
													OFFSET 0 0 0
												}
											}
										}
									}
								}
							}
						}
					}
				}
			}
		}
	}
}
MOTION
Frames: 7
Frame Time: 0.03333333
-9.348105 27.140810 -3.365671 0.000000 0.000000 0.000000 35.411140 7.604462 -4.270473 -62.026874 -21.988706 29.223320 42.034726 3.308938 -3.543960 3.568608 10.138734 -37.476326 -1.195577 0.217032 -0.238481 0.000000 0.000000 0.000000 35.834676 6.824769 -4.324255 -57.418484 0.759127 -30.938684 51.423238 5.090285 1.935848 -26.048675 -10.915113 27.409856 2.192472 0.733316 0.421974 0.000000 0.000000 0.000000 36.191004 5.321753 -4.565588 9.035841 1.530690 0.768476 11.694142 1.878801 1.279414 0.933862 0.329774 0.170666 0.000000 0.000000 0.000000 10.333809 2.009794 1.058185 -0.634819 -1.867106 -2.449406 -30.270616 -11.171494 3.485670 0.000000 0.000000 0.000000 10.730504 1.883459 0.802329 0.748198 -20.919519 -10.184640 0.906911 0.495071 -2.611055 14.822241 -10.959868 -49.391550 -3.236191 -72.257616 -3.234658 0.000000 0.000000 0.000000 10.498341 2.198011 1.466457 2.794845 26.458032 7.855188 0.474560 3.162306 -0.099148 -4.827262 41.696765 18.129817 -0.972678 20.045728 1.323263 0.000000 0.000000 0.000000 
-8.997644 26.771444 -3.345802 0.000000 0.000000 0.000000 38.100294 7.641417 -3.877989 -67.455447 -20.990331 27.821877 44.898897 1.970930 -3.492173 2.305865 8.916406 -37.483289 -1.399409 0.084587 0.177718 0.000000 0.000000 0.000000 38.619283 6.373334 -3.693803 -60.797262 2.273470 -32.589353 52.566731 6.299637 2.004129 -26.967189 -11.306781 28.141266 1.724605 0.851740 0.307273 0.000000 0.000000 0.000000 39.088664 5.247496 -4.053374 9.357708 1.849681 0.792353 11.954972 2.040924 1.311403 0.942399 0.302735 0.192630 0.000000 0.000000 0.000000 10.563477 2.193133 1.036230 -0.748665 -2.046148 -2.629256 -32.083065 -12.028665 2.692919 0.000000 0.000000 0.000000 11.022443 2.044082 0.805436 0.772739 -21.561893 -9.798064 0.873056 0.353982 -2.792241 14.709728 -10.828112 -49.046000 -3.955558 -74.452019 -4.006589 0.000000 0.000000 0.000000 10.686356 2.377347 1.518758 2.778608 26.858363 8.026053 0.687727 3.097030 -0.198063 -7.335123 41.614270 15.082448 -1.272661 20.571835 1.427542 0.000000 0.000000 0.000000 
-8.646159 26.403612 -3.278637 0.000000 0.000000 0.000000 40.694588 8.006546 -3.381362 -72.918615 -19.718452 26.502358 47.791547 0.606125 -3.582729 0.895940 7.547235 -36.839090 -1.459557 -0.041459 0.308484 0.000000 0.000000 0.000000 41.253912 6.271674 -2.969699 -63.870342 4.054869 -34.664064 54.159350 7.633622 2.268213 -27.838321 -11.687208 29.084465 1.186793 0.937132 0.239104 0.000000 0.000000 0.000000 41.894864 5.396122 -3.385777 9.669734 2.145612 0.818408 12.131355 2.206885 1.305182 1.013311 0.242197 0.181432 0.000000 0.000000 0.000000 10.718752 2.386943 0.986526 -0.840137 -2.252527 -2.767287 -33.723188 -12.971454 1.856360 0.000000 0.000000 0.000000 11.224238 2.223943 0.800045 0.830324 -22.187571 -9.312082 0.983875 0.109828 -3.020101 15.304432 -11.664120 -48.830535 -4.570676 -76.409668 -4.701014 0.000000 0.000000 0.000000 10.802806 2.552819 1.539397 2.768989 26.995020 8.297217 0.903153 3.007014 -0.235496 -10.852056 41.325633 12.738894 -1.531534 21.185160 1.409085 0.000000 0.000000 0.000000 
-8.302778 25.988516 -3.151766 0.000000 0.000000 0.000000 43.138167 8.709578 -2.775649 -78.186500 -18.309300 25.305680 50.657382 -0.729685 -3.841697 -0.498200 6.232980 -35.664738 -1.506160 -0.146583 0.197360 0.000000 0.000000 0.000000 43.670201 6.639507 -2.186122 -66.470493 6.160041 -37.151434 56.255835 8.966629 2.691150 -29.151384 -12.204668 29.809220 1.112951 1.005790 0.260571 0.000000 0.000000 0.000000 44.495530 5.842879 -2.573406 9.976601 2.409004 0.816252 12.284023 2.401477 1.281002 1.031076 0.199218 0.191910 0.000000 0.000000 0.000000 10.874000 2.607968 0.933512 -0.996389 -2.483533 -2.911820 -35.279320 -13.948133 0.952660 0.000000 0.000000 0.000000 11.400400 2.442798 0.805645 0.917631 -22.699896 -8.762039 1.181121 -0.096749 -3.210750 16.158342 -13.221818 -48.722499 -5.066286 -77.888008 -5.271995 0.000000 0.000000 0.000000 10.911139 2.738812 1.534397 2.804747 26.961079 8.552636 1.142539 2.867603 -0.208774 -14.582988 40.894692 10.626356 -1.711012 22.102451 1.297382 0.000000 0.000000 0.000000 
-7.996427 25.489052 -2.987217 0.000000 0.000000 0.000000 45.321020 9.743217 -2.074228 -83.033312 -16.952364 24.189888 53.552645 -2.042410 -4.208182 -2.010886 5.199632 -34.163729 -1.519834 -0.239470 -0.038669 0.000000 0.000000 0.000000 45.865099 7.535563 -1.391859 -68.455455 8.575930 -39.936017 59.016755 10.171777 3.224231 -31.179691 -12.964465 29.997416 1.544738 1.073766 0.391877 0.000000 0.000000 0.000000 46.813570 6.562317 -1.658245 10.298001 2.644192 0.755945 12.480363 2.653316 1.262020 0.955041 0.164153 0.278838 0.000000 0.000000 0.000000 11.108348 2.878997 0.895471 -1.360100 -2.753217 -3.110194 -36.870608 -14.887770 -0.033639 0.000000 0.000000 0.000000 11.623475 2.712877 0.838246 1.039727 -23.012762 -8.173220 1.356668 -0.229456 -3.288701 16.811976 -15.124875 -48.692333 -5.609844 -78.753440 -5.848200 0.000000 0.000000 0.000000 11.096517 2.959325 1.524905 2.905200 26.896650 8.680419 1.376697 2.729167 -0.078703 -17.727698 40.490837 8.167404 -1.758133 23.217830 1.151476 0.000000 0.000000 0.000000 
-7.732998 24.887192 -2.792494 0.000000 0.000000 0.000000 47.207768 10.915193 -1.293707 -87.257381 -15.783321 23.111776 56.481771 -3.378246 -4.575388 -3.746899 4.579040 -32.621520 -1.527960 -0.319707 -0.242064 0.000000 0.000000 0.000000 47.788559 8.769201 -0.616101 -69.808351 11.233151 -42.893591 62.472421 11.291573 3.773878 -33.771443 -13.950085 29.772525 2.151847 1.137743 0.594862 0.000000 0.000000 0.000000 48.814163 7.523392 -0.722280 10.631472 2.884175 0.625523 12.780886 2.988058 1.264375 0.910098 0.166697 0.330226 0.000000 0.000000 0.000000 11.482153 3.215736 0.895457 -2.026925 -3.040187 -3.373090 -38.602187 -15.781999 -1.098439 0.000000 0.000000 0.000000 11.952279 3.045367 0.903009 1.183130 -23.060004 -7.565497 1.373936 -0.286360 -3.265472 16.877134 -17.058379 -48.766779 -6.343599 -79.024988 -6.526177 0.000000 0.000000 0.000000 11.415418 3.242481 1.526047 3.054940 26.969699 8.637823 1.461016 2.561488 0.126368 -19.886185 40.122106 5.044489 -1.661169 24.102870 1.023107 0.000000 0.000000 0.000000 
-7.511800 24.189947 -2.579578 0.000000 0.000000 0.000000 48.788612 12.100237 -0.509761 -90.828081 -14.896677 22.073337 59.416253 -4.784511 -4.851183 -5.762462 4.425205 -31.470442 -1.588052 -0.381302 -0.261899 0.000000 0.000000 0.000000 49.448835 10.080385 0.137053 -70.562295 14.028784 -45.887226 66.377069 12.454417 4.223792 -36.722294 -15.078700 29.470398 2.682706 1.191920 0.800812 0.000000 0.000000 0.000000 50.474131 8.631821 0.168682 10.956113 3.151568 0.446970 13.216193 3.390727 1.306531 0.821333 0.136909 0.428280 0.000000 0.000000 0.000000 12.028237 3.607552 0.949467 -2.999050 -3.348443 -3.667041 -40.570808 -16.598866 -2.198772 0.000000 0.000000 0.000000 12.417171 3.441619 0.998295 1.332425 -22.809118 -6.971184 1.357280 -0.343162 -3.147598 16.316972 -18.890451 -48.935546 -7.147932 -78.820561 -7.226491 0.000000 0.000000 0.000000 11.883180 3.592802 1.565911 3.234047 27.266807 8.376065 1.428271 2.491788 0.265322 -21.280127 39.741179 1.353617 -1.489410 24.366845 0.962492 0.000000 0.000000 0.000000 
